<svg id="Layer_1" viewBox="0 0 64 64"
  xmlns="http://www.w3.org/2000/svg" data-name="Layer 1" fill="white">
  <g stroke="white">
    <path d="m46.0186 35.44-2.8786-2.88-.0019-.0029-3.8521-3.8488 5.8361-5.8353a3.0367 3.0367 0 0 0 0-4.2949 6.7944 6.7944 0 0 0 -9.6006-.0019l-3.1875 3.1838-5.4229-5.42a4.515 4.515 0 0 0 -3.2177-1.34h-.0079a4.562 4.562 0 0 0 -3.23 7.7832l4.5658 4.5659a4.5614 4.5614 0 0 0 -3.3748 6.1933 4.5079 4.5079 0 0 0 -4.172 4.5181 4.5926 4.5926 0 0 0 .2943 1.59 4.5186 4.5186 0 0 0 -4.2556 4.5395 4.5613 4.5613 0 0 0 1.3315 3.2216l6.72 6.72.0043.0028 2.8775 2.878a15.2539 15.2539 0 0 0 21.5721-21.5724zm-9.0831-15.45a4.7943 4.7943 0 0 1 6.7725.003 1.035 1.035 0 0 1 0 1.4648l-5.8365 5.8366-4.1234-4.1209zm7.669 35.6075a13.2707 13.2707 0 0 1 -18.7441 0l-2.8794-2.88-.0044-.0029-6.7129-6.7126a2.5664 2.5664 0 0 1 1.812-4.3838h.0049a2.5338 2.5338 0 0 1 1.8042.7539l4.7752 4.7744a1 1 0 1 0 1.414-1.4141l-5.854-5.8535a2.5638 2.5638 0 1 1 3.6255-3.626l5.8545 5.8545a1 1 0 1 0 1.4141-1.414l-5.8545-5.8545-1.2012-1.2012a2.5765 2.5765 0 0 1 -.0024-3.6231 2.574 2.574 0 0 1 3.6279-.0029l7.0557 7.0557a1 1 0 0 0 1.414-1.4141l-7.0556-7.0556-7.2286-7.2286a2.561 2.561 0 0 1 1.8161-4.3691h.0045a2.53 2.53 0 0 1 1.8047.7529l16.228 16.2178.0019.0029 2.88 2.88a13.2688 13.2688 0 0 1 -.0001 18.7441z" />
    <path d="m30.0186 14.1426a2.8128 2.8128 0 0 0 3.9746 0l3.9248-3.9258a4.6653 4.6653 0 0 0 .6767-5.9229 4.5791 4.5791 0 0 0 -3.7685-2.0019h-.0269a4.5143 4.5143 0 0 0 -2.81.9726 4.6185 4.6185 0 0 0 -5.356-.1875 4.5782 4.5782 0 0 0 -2.001 3.78 4.5271 4.5271 0 0 0 1.3365 3.2354zm-2.2535-9.417a2.7053 2.7053 0 0 1 3.3789.4433l.1558.1553a1.0014 1.0014 0 0 0 1.4126 0l.2813-.2812a2.5411 2.5411 0 0 1 1.8115-.751h.0083a2.6206 2.6206 0 0 1 2.1328 1.1328 2.7047 2.7047 0 0 1 -.4424 3.3779l-3.9248 3.9258a.8111.8111 0 0 1 -1.1465 0l-4.0493-4.05a2.5419 2.5419 0 0 1 -.751-1.8213 2.5837 2.5837 0 0 1 1.1328-2.1316z" fill="red" />
  </g>
</svg>